<svg width="115" height="96" viewBox="0 0 115 96" fill="none" xmlns="http://www.w3.org/2000/svg">
<path d="M13.7308 54H5.22303V30H13.8012C16.2152 30 18.2933 30.4805 20.0355 31.4414C21.7777 32.3945 23.1176 33.7656 24.0551 35.5547C25.0004 37.3437 25.473 39.4844 25.473 41.9766C25.473 44.4766 25.0004 46.625 24.0551 48.4219C23.1176 50.2187 21.7699 51.5977 20.0121 52.5586C18.2621 53.5195 16.1683 54 13.7308 54ZM10.2972 49.6523H13.5199C15.0199 49.6523 16.2816 49.3867 17.3051 48.8555C18.3363 48.3164 19.1097 47.4844 19.6254 46.3594C20.1488 45.2266 20.4105 43.7656 20.4105 41.9766C20.4105 40.2031 20.1488 38.7539 19.6254 37.6289C19.1097 36.5039 18.3402 35.6758 17.3168 35.1445C16.2933 34.6133 15.0316 34.3477 13.5316 34.3477H10.2972V49.6523ZM26.0454 30H31.729L37.2016 40.3359H37.436L42.9087 30H48.5922L39.8383 45.5156V54H34.7993V45.5156L26.0454 30ZM52.7212 54H47.2837L55.5689 30H62.1079L70.3814 54H64.9439L58.9322 35.4844H58.7447L52.7212 54ZM52.3814 44.5664H65.2251V48.5273H52.3814V44.5664ZM81.4479 54H72.9401V30H81.5182C83.9323 30 86.0104 30.4805 87.7526 31.4414C89.4948 32.3945 90.8346 33.7656 91.7721 35.5547C92.7174 37.3437 93.1901 39.4844 93.1901 41.9766C93.1901 44.4766 92.7174 46.625 91.7721 48.4219C90.8346 50.2187 89.4869 51.5977 87.7291 52.5586C85.9791 53.5195 83.8854 54 81.4479 54ZM78.0143 49.6523H81.2369C82.7369 49.6523 83.9987 49.3867 85.0221 48.8555C86.0533 48.3164 86.8268 47.4844 87.3424 46.3594C87.8658 45.2266 88.1276 43.7656 88.1276 41.9766C88.1276 40.2031 87.8658 38.7539 87.3424 37.6289C86.8268 36.5039 86.0573 35.6758 85.0338 35.1445C84.0104 34.6133 82.7487 34.3477 81.2487 34.3477H78.0143V49.6523Z" fill="black"/>
<path d="M2.48418 60.1717H4.40781C4.49805 60.1717 4.57188 60.173 4.6293 60.1758C4.68945 60.1758 4.77559 60.1813 4.8877 60.1922C4.99981 60.2004 5.09551 60.2141 5.17481 60.2332C5.2541 60.2496 5.34707 60.277 5.45371 60.3152C5.56309 60.3508 5.65606 60.3932 5.73262 60.4424C5.80918 60.4916 5.88848 60.5572 5.97051 60.6393C6.05527 60.7186 6.12227 60.8074 6.17148 60.9059C6.22344 61.0043 6.26582 61.1232 6.29863 61.2627C6.33145 61.4021 6.34785 61.5553 6.34785 61.7221C6.34785 61.9627 6.32051 62.1787 6.26582 62.3701C6.21113 62.5615 6.14004 62.7215 6.05254 62.85C5.96777 62.9785 5.85703 63.0893 5.72031 63.1822C5.58359 63.2752 5.44824 63.3477 5.31426 63.3996C5.18027 63.4488 5.02168 63.4885 4.83848 63.5186C4.65801 63.5459 4.49531 63.5637 4.35039 63.5719C4.2082 63.5801 4.04277 63.5842 3.8541 63.5842C3.66816 63.5842 3.44395 63.5746 3.18145 63.5555V66H2.48418V60.1717ZM3.18145 62.9402C3.44395 62.9621 3.69277 62.973 3.92793 62.973C4.06191 62.973 4.17402 62.9717 4.26426 62.9689C4.35449 62.9662 4.46523 62.9566 4.59648 62.9402C4.72773 62.9238 4.83711 62.902 4.92461 62.8746C5.01211 62.8445 5.10508 62.8008 5.20352 62.7434C5.30195 62.6859 5.37988 62.6189 5.43731 62.5424C5.49746 62.4631 5.54668 62.3646 5.58496 62.2471C5.62324 62.1268 5.64238 61.99 5.64238 61.8369C5.64238 61.6783 5.62188 61.5389 5.58086 61.4186C5.53984 61.2955 5.47969 61.1971 5.40039 61.1232C5.32383 61.0494 5.2418 60.9893 5.1543 60.9428C5.06953 60.8936 4.96563 60.8594 4.84258 60.8402C4.72227 60.8184 4.61563 60.8047 4.52266 60.7992C4.43242 60.791 4.32441 60.7869 4.19863 60.7869H3.18145V62.9402ZM11.8275 61.7713C11.8275 61.9654 11.8043 62.15 11.7578 62.325C11.7113 62.5 11.6389 62.6668 11.5404 62.8254C11.442 62.984 11.3053 63.1221 11.1303 63.2396C10.958 63.3545 10.7557 63.4393 10.5232 63.4939L12.168 66H11.3887L9.80957 63.5719H8.68164V66H7.98027V60.1717H10.1213C10.2197 60.1717 10.3086 60.1744 10.3879 60.1799C10.4672 60.1854 10.5684 60.2004 10.6914 60.225C10.8172 60.2469 10.9279 60.2783 11.0236 60.3193C11.1193 60.3576 11.2191 60.4178 11.323 60.4998C11.4297 60.5791 11.5172 60.6734 11.5855 60.7828C11.6566 60.8922 11.7141 61.0316 11.7578 61.2012C11.8043 61.3707 11.8275 61.5607 11.8275 61.7713ZM8.68164 62.9566H9.68652C9.82598 62.9566 9.94902 62.9525 10.0557 62.9443C10.1623 62.9334 10.2867 62.9074 10.4289 62.8664C10.5738 62.8227 10.6928 62.7639 10.7857 62.69C10.8814 62.6135 10.9621 62.5041 11.0277 62.3619C11.0961 62.217 11.1303 62.0461 11.1303 61.8492C11.1303 61.7098 11.1125 61.584 11.077 61.4719C11.0414 61.3598 10.9963 61.2682 10.9416 61.1971C10.8869 61.1232 10.8199 61.0604 10.7406 61.0084C10.6613 60.9537 10.5848 60.9127 10.5109 60.8854C10.4371 60.858 10.3551 60.8361 10.2648 60.8197C10.1746 60.8033 10.0994 60.7938 10.0393 60.791C9.98184 60.7855 9.92031 60.7828 9.85469 60.7828H8.68164V62.9566ZM15.2934 60.1717H16.085L18.1563 66H17.4508L16.8602 64.3061H14.4566L13.866 66H13.2221L15.2934 60.1717ZM15.6584 60.8525L14.6658 63.6949H16.6469L15.6584 60.8525ZM22.4096 60.1307C22.94 60.1307 23.4678 60.2346 23.9928 60.4424L23.7795 61.0207C23.249 60.8375 22.7855 60.7459 22.3891 60.7459C22.0609 60.7459 21.7561 60.8115 21.4744 60.9428C21.1955 61.0713 20.9631 61.2449 20.7771 61.4637C20.5939 61.6797 20.4504 61.9285 20.3465 62.2102C20.2426 62.4891 20.1906 62.7816 20.1906 63.0879C20.1906 63.4051 20.2453 63.7072 20.3547 63.9943C20.4668 64.2787 20.6227 64.5289 20.8223 64.7449C21.0219 64.9582 21.2693 65.1277 21.5646 65.2535C21.8627 65.3793 22.1881 65.4422 22.5408 65.4422C22.9619 65.4422 23.4008 65.3602 23.8574 65.1961L24.0707 65.7129C23.4992 65.959 22.9305 66.082 22.3645 66.082C22.0145 66.082 21.6863 66.0314 21.3801 65.9303C21.0738 65.8291 20.8059 65.6883 20.5762 65.5078C20.3492 65.3246 20.1537 65.1086 19.9896 64.8598C19.8256 64.6109 19.7012 64.3375 19.6164 64.0395C19.5344 63.7387 19.4934 63.4229 19.4934 63.092C19.4934 62.5314 19.6096 62.0283 19.842 61.5826C20.0771 61.1369 20.4176 60.7842 20.8633 60.5244C21.309 60.2619 21.8244 60.1307 22.4096 60.1307ZM24.6695 60.1717H29.2633V60.7869H27.315V66H26.6178V60.7869H24.6695V60.1717ZM30.5963 60.1717H31.2936V66H30.5963V60.1717ZM36.3221 60.1307C36.8525 60.1307 37.3803 60.2346 37.9053 60.4424L37.692 61.0207C37.1615 60.8375 36.698 60.7459 36.3016 60.7459C35.9734 60.7459 35.6686 60.8115 35.3869 60.9428C35.108 61.0713 34.8756 61.2449 34.6896 61.4637C34.5064 61.6797 34.3629 61.9285 34.259 62.2102C34.1551 62.4891 34.1031 62.7816 34.1031 63.0879C34.1031 63.4051 34.1578 63.7072 34.2672 63.9943C34.3793 64.2787 34.5352 64.5289 34.7348 64.7449C34.9344 64.9582 35.1818 65.1277 35.4771 65.2535C35.7752 65.3793 36.1006 65.4422 36.4533 65.4422C36.8744 65.4422 37.3133 65.3602 37.7699 65.1961L37.9832 65.7129C37.4117 65.959 36.843 66.082 36.277 66.082C35.927 66.082 35.5988 66.0314 35.2926 65.9303C34.9863 65.8291 34.7184 65.6883 34.4887 65.5078C34.2617 65.3246 34.0662 65.1086 33.9021 64.8598C33.7381 64.6109 33.6137 64.3375 33.5289 64.0395C33.4469 63.7387 33.4059 63.4229 33.4059 63.092C33.4059 62.5314 33.5221 62.0283 33.7545 61.5826C33.9896 61.1369 34.3301 60.7842 34.7758 60.5244C35.2215 60.2619 35.7369 60.1307 36.3221 60.1307ZM39.4229 66V60.1717H42.8395V60.7869H40.1201V62.69H42.6139V63.3053H40.1201V65.3848H42.8395V66H39.4229ZM49.1641 60.1184C49.6125 60.1184 50.0951 60.1963 50.6119 60.3521L50.3863 60.9879C49.8941 60.8457 49.4676 60.7746 49.1066 60.7746C48.702 60.7746 48.3588 60.8607 48.0771 61.033C47.7982 61.2025 47.6588 61.4227 47.6588 61.6934C47.6588 61.8438 47.7039 61.9777 47.7941 62.0953C47.8844 62.2129 48.0033 62.3086 48.151 62.3824C48.2986 62.4563 48.4668 62.5301 48.6555 62.6039C48.8441 62.675 49.0355 62.7406 49.2297 62.8008C49.4266 62.8609 49.6193 62.9375 49.808 63.0305C49.9967 63.1234 50.1648 63.226 50.3125 63.3381C50.4602 63.4475 50.5791 63.591 50.6693 63.7688C50.7596 63.9465 50.8047 64.1475 50.8047 64.3717C50.8047 64.5275 50.7801 64.6834 50.7309 64.8393C50.6816 64.9924 50.5996 65.1455 50.4848 65.2986C50.3699 65.449 50.2277 65.5816 50.0582 65.6965C49.8887 65.8113 49.674 65.9043 49.4143 65.9754C49.1572 66.0465 48.8701 66.082 48.5529 66.082C48.2357 66.082 47.9432 66.0492 47.6752 65.9836C47.41 65.918 47.1119 65.8195 46.7811 65.6883L47.0189 65.0115C47.7025 65.2658 48.2426 65.393 48.6391 65.393C49.0547 65.393 49.3924 65.3096 49.6521 65.1428C49.9146 64.976 50.0459 64.7531 50.0459 64.4742C50.0459 64.2883 49.9871 64.1283 49.8695 63.9943C49.7547 63.8576 49.6043 63.7482 49.4184 63.6662C49.2352 63.5814 49.0314 63.5035 48.8072 63.4324C48.583 63.3586 48.3588 63.2807 48.1346 63.1986C47.9131 63.1139 47.7094 63.0168 47.5234 62.9074C47.3402 62.798 47.1898 62.6504 47.0723 62.4645C46.9574 62.2785 46.9 62.0598 46.9 61.8082C46.9 61.584 46.9533 61.3693 47.06 61.1643C47.1693 60.9592 47.3197 60.7801 47.5111 60.627C47.7025 60.4711 47.9418 60.348 48.2289 60.2578C48.516 60.1648 48.8277 60.1184 49.1641 60.1184ZM55.0088 60.1102C55.3943 60.1102 55.7539 60.1785 56.0875 60.3152C56.4238 60.4492 56.7137 60.6393 56.957 60.8854C57.2031 61.1314 57.3959 61.4391 57.5354 61.8082C57.6748 62.1746 57.7445 62.5779 57.7445 63.0182C57.7445 63.6143 57.6256 64.1447 57.3877 64.6096C57.1525 65.0717 56.8244 65.4299 56.4033 65.6842C55.985 65.9357 55.5105 66.0615 54.9801 66.0615C54.6301 66.0615 54.2951 66 53.9752 65.877C53.6553 65.7512 53.3668 65.5693 53.1098 65.3314C52.8527 65.0936 52.6477 64.7832 52.4945 64.4004C52.3414 64.0148 52.2648 63.5814 52.2648 63.1002C52.2648 62.649 52.3346 62.2361 52.474 61.8615C52.6135 61.4869 52.8049 61.1725 53.0482 60.9182C53.2916 60.6611 53.5814 60.4629 53.9178 60.3234C54.2541 60.1813 54.6178 60.1102 55.0088 60.1102ZM54.9719 60.7213C54.723 60.7213 54.4838 60.7678 54.2541 60.8607C54.0244 60.9537 53.8125 61.0904 53.6184 61.2709C53.427 61.4486 53.2725 61.6893 53.1549 61.9928C53.04 62.2936 52.9826 62.634 52.9826 63.0141C52.9826 63.3777 53.0359 63.7141 53.1426 64.023C53.2492 64.3293 53.3941 64.5863 53.5773 64.7941C53.7605 65.002 53.9766 65.1633 54.2254 65.2781C54.477 65.393 54.7463 65.4504 55.0334 65.4504C55.2275 65.4504 55.4176 65.4217 55.6035 65.3643C55.7922 65.3068 55.9727 65.2166 56.1449 65.0936C56.3172 64.9678 56.4676 64.8146 56.5961 64.6342C56.7273 64.4537 56.8312 64.2309 56.9078 63.9656C56.9871 63.7004 57.0268 63.4092 57.0268 63.092C57.0268 62.7693 56.9857 62.474 56.9037 62.2061C56.8217 61.9381 56.7123 61.7139 56.5756 61.5334C56.4416 61.3529 56.2844 61.2012 56.1039 61.0781C55.9262 60.9523 55.7416 60.8621 55.5502 60.8074C55.3615 60.75 55.1687 60.7213 54.9719 60.7213ZM59.4877 60.1717H60.185V65.3889H62.8018V66H59.4877V60.1717ZM64.1389 60.1717H64.8361V63.9492C64.8361 64.1816 64.8553 64.3813 64.8936 64.548C64.9346 64.7148 65.0193 64.8707 65.1479 65.0156C65.4213 65.3246 65.8246 65.4791 66.3578 65.4791C66.7434 65.4791 67.0646 65.3957 67.3217 65.2289C67.5814 65.0594 67.7496 64.8215 67.8262 64.5152C67.8617 64.3703 67.8795 64.1816 67.8795 63.9492V60.1717H68.5686C68.5686 61.0494 68.5686 61.7672 68.5686 62.325C68.5713 62.8828 68.5727 63.241 68.5727 63.3996C68.5727 63.5555 68.5727 63.6813 68.5727 63.777C68.5754 63.8699 68.5768 63.9479 68.5768 64.0107C68.5768 64.1365 68.574 64.2473 68.5686 64.343C68.5631 64.4359 68.5439 64.559 68.5111 64.7121C68.4811 64.8652 68.4387 64.9992 68.384 65.1141C68.3293 65.2262 68.2459 65.3465 68.1338 65.475C68.0244 65.6035 67.8932 65.7102 67.74 65.7949C67.5896 65.877 67.3955 65.9453 67.1576 66C66.9225 66.0547 66.6559 66.082 66.3578 66.082C66.0379 66.082 65.7508 66.0492 65.4965 65.9836C65.2422 65.9152 65.0426 65.8346 64.8977 65.7416C64.7527 65.6486 64.627 65.5365 64.5203 65.4053C64.4164 65.274 64.3439 65.1619 64.3029 65.0689C64.2646 64.9732 64.2332 64.8734 64.2086 64.7695C64.1621 64.5891 64.1389 64.3334 64.1389 64.0025V60.1717ZM69.7867 60.1717H74.3805V60.7869H72.4322V66H71.735V60.7869H69.7867V60.1717ZM75.7135 60.1717H76.4107V66H75.7135V60.1717ZM81.0209 60.1102C81.4064 60.1102 81.766 60.1785 82.0996 60.3152C82.4359 60.4492 82.7258 60.6393 82.9691 60.8854C83.2152 61.1314 83.408 61.4391 83.5475 61.8082C83.6869 62.1746 83.7566 62.5779 83.7566 63.0182C83.7566 63.6143 83.6377 64.1447 83.3998 64.6096C83.1646 65.0717 82.8365 65.4299 82.4154 65.6842C81.9971 65.9357 81.5226 66.0615 80.9922 66.0615C80.6422 66.0615 80.3072 66 79.9873 65.877C79.6674 65.7512 79.3789 65.5693 79.1219 65.3314C78.8648 65.0936 78.6598 64.7832 78.5066 64.4004C78.3535 64.0148 78.2769 63.5814 78.2769 63.1002C78.2769 62.649 78.3467 62.2361 78.4861 61.8615C78.6256 61.4869 78.817 61.1725 79.0603 60.9182C79.3037 60.6611 79.5935 60.4629 79.9299 60.3234C80.2662 60.1813 80.6299 60.1102 81.0209 60.1102ZM80.984 60.7213C80.7351 60.7213 80.4959 60.7678 80.2662 60.8607C80.0365 60.9537 79.8246 61.0904 79.6305 61.2709C79.4391 61.4486 79.2846 61.6893 79.167 61.9928C79.0521 62.2936 78.9947 62.634 78.9947 63.0141C78.9947 63.3777 79.048 63.7141 79.1547 64.023C79.2613 64.3293 79.4062 64.5863 79.5894 64.7941C79.7727 65.002 79.9887 65.1633 80.2375 65.2781C80.4891 65.393 80.7584 65.4504 81.0455 65.4504C81.2396 65.4504 81.4297 65.4217 81.6156 65.3643C81.8043 65.3068 81.9848 65.2166 82.157 65.0936C82.3293 64.9678 82.4797 64.8146 82.6082 64.6342C82.7394 64.4537 82.8434 64.2309 82.9199 63.9656C82.9992 63.7004 83.0389 63.4092 83.0389 63.092C83.0389 62.7693 82.9978 62.474 82.9158 62.2061C82.8338 61.9381 82.7244 61.7139 82.5877 61.5334C82.4537 61.3529 82.2965 61.2012 82.116 61.0781C81.9383 60.9523 81.7537 60.8621 81.5623 60.8074C81.3736 60.75 81.1809 60.7213 80.984 60.7213ZM85.4998 60.1717H86.3816L89.5562 65.0484V60.1717H90.2535V66H89.3717L86.1971 61.115V66H85.4998V60.1717ZM94.4863 60.1184C94.9348 60.1184 95.4174 60.1963 95.9342 60.3521L95.7086 60.9879C95.2164 60.8457 94.7898 60.7746 94.4289 60.7746C94.0242 60.7746 93.6811 60.8607 93.3994 61.033C93.1205 61.2025 92.9811 61.4227 92.9811 61.6934C92.9811 61.8438 93.0262 61.9777 93.1164 62.0953C93.2066 62.2129 93.3256 62.3086 93.4732 62.3824C93.6209 62.4563 93.7891 62.5301 93.9777 62.6039C94.1664 62.675 94.3578 62.7406 94.5519 62.8008C94.7488 62.8609 94.9416 62.9375 95.1303 63.0305C95.3189 63.1234 95.4871 63.226 95.6348 63.3381C95.7824 63.4475 95.9014 63.591 95.9916 63.7688C96.0818 63.9465 96.1269 64.1475 96.1269 64.3717C96.1269 64.5275 96.1023 64.6834 96.0531 64.8393C96.0039 64.9924 95.9219 65.1455 95.807 65.2986C95.6922 65.449 95.55 65.5816 95.3805 65.6965C95.2109 65.8113 94.9963 65.9043 94.7365 65.9754C94.4795 66.0465 94.1924 66.082 93.8752 66.082C93.558 66.082 93.2654 66.0492 92.9975 65.9836C92.7322 65.918 92.4342 65.8195 92.1033 65.6883L92.3412 65.0115C93.0248 65.2658 93.5648 65.393 93.9613 65.393C94.3769 65.393 94.7146 65.3096 94.9744 65.1428C95.2369 64.976 95.3682 64.7531 95.3682 64.4742C95.3682 64.2883 95.3094 64.1283 95.1918 63.9943C95.0769 63.8576 94.9266 63.7482 94.7406 63.6662C94.5574 63.5814 94.3537 63.5035 94.1295 63.4324C93.9053 63.3586 93.6811 63.2807 93.4568 63.1986C93.2353 63.1139 93.0316 63.0168 92.8457 62.9074C92.6625 62.798 92.5121 62.6504 92.3945 62.4645C92.2797 62.2785 92.2223 62.0598 92.2223 61.8082C92.2223 61.584 92.2756 61.3693 92.3822 61.1643C92.4916 60.9592 92.642 60.7801 92.8334 60.627C93.0248 60.4711 93.2641 60.348 93.5512 60.2578C93.8383 60.1648 94.15 60.1184 94.4863 60.1184Z" fill="black"/>
<path fill-rule="evenodd" clip-rule="evenodd" d="M114 48C114 73.9574 92.9576 95 67.0002 95C48.1951 95 31.9695 83.9559 24.4556 68H23.3525C30.9366 84.5242 47.6282 96 67.0002 96C93.5099 96 115 74.5097 115 48C115 21.4903 93.5099 0 67.0002 0C47.6282 0 30.9366 11.4758 23.3525 28H24.4556C31.9695 12.0441 48.1951 1 67.0002 1C92.9576 1 114 22.0426 114 48Z" fill="black"/>
<path d="M2 54H52.7227L52.4205 55H2V54Z" fill="black"/>
<path d="M95.7227 54H64.9414L65.2695 55H95.7227V54Z" fill="black"/>
</svg>
